<svg xmlns="http://www.w3.org/2000/svg" width="151.375" height="70" viewBox="0 0 151.375 70">
  <g id="그룹_14199" data-name="그룹 14199" transform="translate(-22.777 -19.015)">
    <g id="그룹_14170" data-name="그룹 14170" transform="translate(96.107 32.379)">
      <g id="그룹_14163" data-name="그룹 14163" transform="translate(1.923 34.345)">
        <g id="그룹_14162" data-name="그룹 14162">
          <g id="그룹_14161" data-name="그룹 14161">
            <g id="그룹_14156" data-name="그룹 14156" transform="translate(28.786 0.439)">
              <g id="그룹_14152" data-name="그룹 14152">
                <g id="그룹_14149" data-name="그룹 14149" transform="translate(6.103 0.066)">
                  <rect id="사각형_150873" data-name="사각형 150873" width="1.222" height="6.48" fill="#00287a"/>
                  <path id="패스_93521" data-name="패스 93521" d="M189.683,92.918a1.825,1.825,0,0,0-1.1.35v.879a.894.894,0,0,1,.676-.281c.786,0,.794.78.794,1.352v2.51h1.222V94.759C191.278,93.7,190.8,92.918,189.683,92.918Z" transform="translate(-186.968 -91.247)" fill="#00287a"/>
                </g>
                <g id="그룹_14150" data-name="그룹 14150" transform="translate(11.232 1.845)">
                  <path id="패스_93522" data-name="패스 93522" d="M196.465,96.677a.892.892,0,0,1-.657.253c-.783,0-.8-.776-.8-1.349v-2.5h-1.219v2.959c0,1.058.483,1.843,1.593,1.843a1.675,1.675,0,0,0,1.078-.362Z" transform="translate(-193.794 -93.077)" fill="#00287a"/>
                  <rect id="사각형_150874" data-name="사각형 150874" width="1.241" height="4.702" transform="translate(3.068 0)" fill="#00287a"/>
                </g>
                <g id="그룹_14151" data-name="그룹 14151" transform="translate(16.459 1.742)">
                  <path id="패스_93523" data-name="패스 93523" d="M205.055,92.925a1.663,1.663,0,0,0-1.077.371v.84a.887.887,0,0,1,.66-.258c.782,0,.792.775.792,1.349v2.5h1.222V94.772C206.652,93.712,206.167,92.925,205.055,92.925Z" transform="translate(-202.34 -92.925)" fill="#00287a"/>
                  <rect id="사각형_150875" data-name="사각형 150875" width="1.243" height="4.702" transform="translate(0 0.103)" fill="#00287a"/>
                </g>
                <path id="패스_93524" data-name="패스 93524" d="M180.421,91.48a2.344,2.344,0,0,1,1.844.9V90.974a2.655,2.655,0,0,0-1.852-.63,3.271,3.271,0,0,0-3.284,3.324h0a3.269,3.269,0,0,0,3.284,3.322,2.661,2.661,0,0,0,1.852-.627V94.95a2.339,2.339,0,0,1-1.844.911,2.194,2.194,0,0,1,0-4.381Z" transform="translate(-177.13 -90.344)" fill="#00287a"/>
              </g>
              <g id="그룹_14155" data-name="그룹 14155" transform="translate(21.723)">
                <g id="그룹_14153" data-name="그룹 14153" transform="translate(21.303 1.742)">
                  <path id="패스_93525" data-name="패스 93525" d="M244.471,92.925a1.667,1.667,0,0,0-1.078.371v.84a.894.894,0,0,1,.66-.258c.782,0,.792.775.792,1.349v2.5h1.221V94.772C246.065,93.712,245.581,92.925,244.471,92.925Z" transform="translate(-241.756 -92.925)" fill="#00287a"/>
                  <rect id="사각형_150876" data-name="사각형 150876" width="1.24" height="4.702" transform="translate(0 0.103)" fill="#00287a"/>
                </g>
                <g id="그룹_14154" data-name="그룹 14154" transform="translate(6.022 0.066)">
                  <rect id="사각형_150877" data-name="사각형 150877" width="1.301" height="6.48" fill="#00287a"/>
                  <path id="패스_93526" data-name="패스 93526" d="M221.914,92.918a1.813,1.813,0,0,0-1.1.35v.879a.878.878,0,0,1,.677-.281c.783,0,.791.78.791,1.352v2.51h1.223V94.759C223.507,93.7,223.025,92.918,221.914,92.918Z" transform="translate(-219.115 -91.247)" fill="#00287a"/>
                </g>
                <path id="패스_93527" data-name="패스 93527" d="M212.645,91.48a2.351,2.351,0,0,1,1.848.9V90.974a2.65,2.65,0,0,0-1.851-.63,3.27,3.27,0,0,0-3.283,3.324h0a3.267,3.267,0,0,0,3.283,3.322,2.656,2.656,0,0,0,1.851-.627V94.95a2.347,2.347,0,0,1-1.848.911,2.194,2.194,0,0,1,0-4.381Z" transform="translate(-209.359 -90.344)" fill="#00287a"/>
                <path id="패스_93528" data-name="패스 93528" d="M235.317,92.918a2.455,2.455,0,1,0,2.46,2.458A2.347,2.347,0,0,0,235.317,92.918Zm0,3.965c-.794,0-1.174-.809-1.174-1.507s.38-1.51,1.174-1.51,1.183.788,1.184,1.51S236.119,96.883,235.317,96.883Z" transform="translate(-217.022 -91.181)" fill="#00287a"/>
                <path id="패스_93529" data-name="패스 93529" d="M227.87,92.918a2.465,2.465,0,0,0,.25,4.92,2.712,2.712,0,0,0,1.785-.577v-1.04a2.869,2.869,0,0,1-1.785.722c-.322,0-1.363-.045-1.363-1.543s.814-1.59,1.113-1.59c.684,0,.959.512.994,1.106h-1.724a3.04,3.04,0,0,0,0,.84h2.875C230.149,94.241,229.544,92.918,227.87,92.918Z" transform="translate(-214.66 -91.181)" fill="#00287a"/>
              </g>
            </g>
            <g id="그룹_14160" data-name="그룹 14160">
              <g id="그룹_14157" data-name="그룹 14157" transform="translate(18.414)">
                <path id="패스_93530" data-name="패스 93530" d="M170.23,92.84h-.9v-.892h.9v-.656a1.536,1.536,0,0,1,1.627-1.6,1.889,1.889,0,0,1,.661.1v1.012a.962.962,0,0,0-.438-.113.59.59,0,0,0-.626.672v.582h1.064v.892h-1.064v3.843H170.23Z" transform="translate(-164.215 -89.694)" fill="#00287a"/>
                <path id="패스_93531" data-name="패스 93531" d="M164.192,92.923a2.456,2.456,0,1,0,2.458,2.458A2.344,2.344,0,0,0,164.192,92.923Zm0,3.965c-.793,0-1.176-.807-1.176-1.507s.384-1.51,1.176-1.51,1.184.79,1.184,1.51S164.994,96.888,164.192,96.888Z" transform="translate(-161.742 -90.743)" fill="#00287a"/>
              </g>
              <g id="그룹_14159" data-name="그룹 14159" transform="translate(0 0.444)">
                <path id="패스_93532" data-name="패스 93532" d="M147.183,93.324h-.9v-.892h.9v-.855l1.219-.394v1.249h1.085v.892H148.4v2.284c0,.437.208.713.611.713a.9.9,0,0,0,.558-.158v.968a2.475,2.475,0,0,1-.9.138,1.38,1.38,0,0,1-1.485-1.526Z" transform="translate(-138.288 -90.622)" fill="#00287a"/>
                <rect id="사각형_150878" data-name="사각형 150878" width="1.222" height="1.17" transform="translate(6.099 0.064)" fill="#00287a"/>
                <rect id="사각형_150879" data-name="사각형 150879" width="1.222" height="4.735" transform="translate(6.099 1.81)" fill="#00287a"/>
                <path id="패스_93533" data-name="패스 93533" d="M137.706,91.486a2.342,2.342,0,0,1,1.849.908V90.98a2.657,2.657,0,0,0-1.851-.628,3.267,3.267,0,0,0-3.281,3.325h0A3.267,3.267,0,0,0,137.7,97a2.657,2.657,0,0,0,1.851-.628V94.96a2.347,2.347,0,0,1-1.849.907,2.194,2.194,0,0,1,0-4.38Z" transform="translate(-134.423 -90.352)" fill="#00287a"/>
                <path id="패스_93534" data-name="패스 93534" d="M155.829,93.033l-1.744,5.009c-.2.562-.5.674-.8.674a1.689,1.689,0,0,1-.564-.149v.97a1.581,1.581,0,0,0,.684.148,1.724,1.724,0,0,0,1.76-1.262l1.88-5.391Z" transform="translate(-140.388 -91.223)" fill="#00287a"/>
                <g id="그룹_14158" data-name="그룹 14158" transform="translate(11.834 1.81)">
                  <path id="패스_93535" data-name="패스 93535" d="M154.179,95.852l-.985-2.819H151.98l1.592,4.557Z" transform="translate(-151.98 -93.033)" fill="#00287a"/>
                </g>
              </g>
            </g>
          </g>
        </g>
      </g>
      <g id="그룹_14169" data-name="그룹 14169">
        <g id="그룹_14168" data-name="그룹 14168">
          <g id="그룹_14167" data-name="그룹 14167">
            <g id="그룹_14164" data-name="그룹 14164">
              <path id="패스_93536" data-name="패스 93536" d="M139.373,73.541V68.4h-3.322v5.943c0,1.663.969,2.514,2.66,2.514h17.343V74.228H140.06C139.561,74.228,139.373,74.1,139.373,73.541Z" transform="translate(-133.031 -48.428)" fill="#00287a"/>
              <path id="패스_93537" data-name="패스 93537" d="M131.57,60.742v2.623h11.343v5.218h1.851c1.032,0,1.473-.4,1.473-1.189V63.365h10.55V60.742Z" transform="translate(-131.57 -45.94)" fill="#00287a"/>
              <path id="패스_93538" data-name="패스 93538" d="M134.428,49.534l.577,1.59h0c.3.826.845.914,1.679.757,2.983-.618,8.919-2.5,9.914-7.723h8.552V41.535h-8.38V38.813h-3.322v2.722h-8.383v2.623h8.016C141.5,48.543,134.859,49.479,134.428,49.534Z" transform="translate(-132.502 -38.813)" fill="#00287a"/>
              <path id="패스_93539" data-name="패스 93539" d="M161.439,52.728c-.384-.051-5.719-.8-7.978-4.084l-.05,0a9.587,9.587,0,0,1-1.645,3.033,16.37,16.37,0,0,0,7.416,3.4c.839.157,1.378.069,1.681-.757h0Z" transform="translate(-138.154 -42.007)" fill="#00287a"/>
            </g>
            <g id="그룹_14165" data-name="그룹 14165" transform="translate(27.63)">
              <path id="패스_93540" data-name="패스 93540" d="M194.685,49.8h4.984V59.913h1.848c1.035,0,1.475-.405,1.475-1.19V39.456h-3.324v7.721h-4.984Z" transform="translate(-179.773 -39.022)" fill="#00287a"/>
              <path id="패스_93541" data-name="패스 93541" d="M183.829,73.742c-.5,0-.687-.124-.687-.688V66.9h-3.32v6.952c0,1.663.97,2.514,2.66,2.514h15.992V73.742Z" transform="translate(-174.929 -47.942)" fill="#00287a"/>
              <path id="패스_93542" data-name="패스 93542" d="M182.949,44.158h6.173V41.535h-6.236V38.813h-3.323v2.722h-6.236v2.623h6.116c0,6.741-6.513,9.207-6.881,9.346l.778,1.353c.441.764.82,1.131,1.9.624C177.816,54.146,182.949,50.673,182.949,44.158Z" transform="translate(-172.562 -38.813)" fill="#00287a"/>
              <path id="패스_93543" data-name="패스 93543" d="M188.443,52.432a11.859,11.859,0,0,1-1.678,3.459,16.355,16.355,0,0,0,5.066,4.017c1.083.506,1.464.14,1.9-.624l.781-1.353A11.513,11.513,0,0,1,188.443,52.432Z" transform="translate(-177.192 -43.239)" fill="#00287a"/>
            </g>
            <g id="그룹_14166" data-name="그룹 14166" transform="translate(54.547 0.434)">
              <path id="패스_93544" data-name="패스 93544" d="M242.427,39.456V67.39h1.726c1.031,0,1.6-.5,1.6-1.254V39.456Z" transform="translate(-222.253 -39.456)" fill="#00287a"/>
              <path id="패스_93545" data-name="패스 93545" d="M223.238,40.747h-3.32v3.015c0,10.482-7.422,14.349-7.422,14.349l1.012,1.212a1.394,1.394,0,0,0,2.2.317,17.675,17.675,0,0,0,7.53-14.583Z" transform="translate(-212.496 -39.876)" fill="#00287a"/>
              <path id="패스_93546" data-name="패스 93546" d="M228.931,53.963a18.381,18.381,0,0,1-1.717,4.564,18.4,18.4,0,0,0,5.032,5.408,1.392,1.392,0,0,0,2.2-.317l1.014-1.212A15.069,15.069,0,0,1,228.931,53.963Z" transform="translate(-217.294 -44.171)" fill="#00287a"/>
            </g>
          </g>
        </g>
      </g>
    </g>
    <path id="패스_93547" data-name="패스 93547" d="M82.181,30.764c-.051-1.6-.3-2.01-1.577-3.193a35,35,0,1,0,.01,52.876c1.463-1.355,1.569-1.687,1.577-4.016h0V55.558L61.779,72.713A9.616,9.616,0,0,1,49.541,57.878l4.6-3.866-4.6-3.864A9.617,9.617,0,0,1,61.779,35.312L82.194,52.467v-21.7Z" transform="translate(0 0)" fill="#009ee2"/>
  </g>
</svg>
